<svg viewBox="0 0 512 512" xmlns="http://www.w3.org/2000/svg" xmlns:xlink="http://www.w3.org/1999/xlink">
    <linearGradient id="a" gradientUnits="userSpaceOnUse" x1="0%" x2="0%" y1="0%" y2="100%">
        <stop offset="0%" stop-color="#8919e0"/>
        <stop offset="110%" stop-color="#66acdb"/>
    </linearGradient>
    <path d="m512 256c0 141.386719-114.613281 256-256 256s-256-114.613281-256-256 114.613281-256 256-256 256 114.613281 256 256zm0 0" fill="url(#a)"/>
    <g fill="#fff">
        <path d="m174.105469 247.121094h21.578125c4.316406 0 6.761718 4.171875 6.761718 8.777344 0 3.882812-2.011718 8.488281-6.761718 8.488281h-21.578125v24.453125h38.554687c4.316406 0 6.761719 4.605468 6.761719 9.925781 0 4.605469-2.015625 9.640625-6.761719 9.640625h-51.214844c-4.890624 0-9.78125-2.300781-9.78125-6.90625v-91.351562c0-4.601563 4.890626-6.902344 9.78125-6.902344h51.214844c4.746094 0 6.761719 5.035156 6.761719 9.636718 0 5.324219-2.445313 9.925782-6.761719 9.925782h-38.554687zm0 0"/>
        <path d="m278.976562 302.363281-27.335937-49.773437v48.910156c0 4.601562-5.609375 6.90625-11.21875 6.90625-5.613281 0-11.222656-2.304688-11.222656-6.90625v-91.351562c0-4.746094 5.609375-6.902344 11.222656-6.902344 8.054687 0 11.074219.71875 16.542969 11.222656l23.304687 44.449219v-48.910157c0-4.746093 5.609375-6.761718 11.222657-6.761718 5.609374 0 11.21875 2.015625 11.21875 6.761718v91.492188c0 4.601562-5.609376 6.90625-11.21875 6.90625-5.179688 0-9.785157-1.007812-12.515626-6.042969zm0 0"/>
        <path d="m426 386.253906h-340c-8.285156 0-15-6.714844-15-15v-230.507812c0-8.285156 6.714844-15 15-15h340c5.144531 0 9.929688 2.636718 12.679688 6.984375 2.75 4.351562 3.078124 9.804687.871093 14.449219l-51.691406 108.820312 51.6875 108.816406c2.210937 4.648438 1.882813 10.101563-.867187 14.453125-2.75 4.347657-7.535157 6.984375-12.679688 6.984375zm-325-30h301.269531l-44.5625-93.816406c-1.9375-4.074219-1.9375-8.800781 0-12.871094l44.5625-93.820312h-301.269531zm0 0"/>
    </g>
</svg>